<svg width="86" height="97" viewBox="0 0 86 97" fill="none" xmlns="http://www.w3.org/2000/svg">
<path opacity="0.4" d="M92.65 74.1654C91.3783 77.5717 88.6987 80.1604 85.2017 81.3413C80.2967 82.9763 75.2554 84.2025 70.1687 85.0654C69.6692 85.1563 69.1696 85.2471 68.67 85.2925C67.8525 85.4288 67.035 85.5196 66.2175 85.6104C65.2183 85.7467 64.1737 85.8375 63.1292 85.9283C60.2679 86.1554 57.4521 86.2917 54.5908 86.2917C51.6842 86.2917 48.7775 86.1554 45.9162 85.8829C44.69 85.7921 43.5092 85.6558 42.3283 85.4742C41.6471 85.3833 40.9658 85.2925 40.33 85.2017C39.8304 85.1108 39.3308 85.0654 38.8312 84.9746C33.79 84.1571 28.7942 82.9308 23.9346 81.2958C20.3012 80.0696 17.5308 77.4808 16.3046 74.1654C15.0783 70.8954 15.5325 67.0804 17.4854 63.8104L22.6175 55.2721C23.7075 53.41 24.7067 49.8221 24.7067 47.6421V39.1946C24.7067 22.7083 38.1046 9.31042 54.5908 9.31042C71.0317 9.31042 84.4296 22.7083 84.4296 39.1946V47.6421C84.4296 49.8221 85.4287 53.41 86.5642 55.2721L91.6962 63.8104C93.5583 66.9896 93.9217 70.7138 92.65 74.1654Z" fill="#FF7011"/>
<path d="M54.5 48.8684C52.5925 48.8684 51.0483 47.3242 51.0483 45.4167V31.3375C51.0483 29.43 52.5925 27.8859 54.5 27.8859C56.4075 27.8859 57.9517 29.43 57.9517 31.3375V45.4167C57.9063 47.3242 56.3621 48.8684 54.5 48.8684Z" fill="#FF7011"/>
<path d="M67.3529 90.8787C65.4454 96.1471 60.4042 99.9166 54.5 99.9166C50.9121 99.9166 47.3696 98.4633 44.8717 95.8746C43.4183 94.5121 42.3283 92.6954 41.6925 90.8333C42.2829 90.9241 42.8733 90.9696 43.5092 91.0604C44.5538 91.1966 45.6438 91.3329 46.7338 91.4237C49.3225 91.6508 51.9567 91.7871 54.5908 91.7871C57.1796 91.7871 59.7683 91.6508 62.3117 91.4237C63.2654 91.3329 64.2192 91.2875 65.1275 91.1512C65.8542 91.0604 66.5808 90.9696 67.3529 90.8787Z" fill="#FF7011"/>
</svg>
