<svg width="26" height="26" viewBox="0 0 26 26" fill="none" xmlns="http://www.w3.org/2000/svg">
<path d="M17.6042 24.375C18.6512 24.375 19.5 23.5262 19.5 22.4792C19.5 21.4321 18.6512 20.5833 17.6042 20.5833C16.5571 20.5833 15.7083 21.4321 15.7083 22.4792C15.7083 23.5262 16.5571 24.375 17.6042 24.375Z" fill="white"/>
<path d="M8.9375 24.375C9.98454 24.375 10.8333 23.5262 10.8333 22.4792C10.8333 21.4321 9.98454 20.5833 8.9375 20.5833C7.89046 20.5833 7.04166 21.4321 7.04166 22.4792C7.04166 23.5262 7.89046 24.375 8.9375 24.375Z" fill="white"/>
<path d="M5.24333 4.26834L5.02666 6.92251C4.98333 7.43167 5.38416 7.85417 5.89333 7.85417H22.4792C22.9342 7.85417 23.3133 7.50751 23.3458 7.05251C23.4867 5.13501 22.0242 3.57501 20.1067 3.57501H6.7925C6.68416 3.09834 6.4675 2.64334 6.13166 2.26417C5.59 1.69001 4.83166 1.35417 4.05166 1.35417H2.16666C1.7225 1.35417 1.35416 1.72251 1.35416 2.16667C1.35416 2.61084 1.7225 2.97917 2.16666 2.97917H4.05166C4.3875 2.97917 4.70166 3.12001 4.92916 3.35834C5.15666 3.60751 5.265 3.93251 5.24333 4.26834Z" fill="white"/>
<path d="M22.2192 9.47917H5.60083C5.14583 9.47917 4.7775 9.82584 4.73417 10.27L4.34417 14.9825C4.1925 16.835 5.64417 18.4167 7.49667 18.4167H19.5433C21.1683 18.4167 22.5983 17.0842 22.7175 15.4592L23.075 10.4C23.1183 9.90167 22.7283 9.47917 22.2192 9.47917Z" fill="white"/>
</svg>
